<svg width="24" height="23" viewBox="0 0 24 23" fill="none" xmlns="http://www.w3.org/2000/svg">
<path d="M23.6174 18.2686L14.444 2.37978C13.9339 1.49628 13.0203 0.96875 12 0.96875C10.9797 0.96875 10.0661 1.49628 9.55597 2.37978L0.382604 18.2685C-0.127535 19.1521 -0.127535 20.2071 0.382604 21.0906C0.892744 21.9742 1.80633 22.5017 2.82661 22.5017H21.1733C22.1936 22.5017 23.1072 21.9741 23.6174 21.0907C24.1275 20.2071 24.1275 19.1521 23.6174 18.2686ZM22.3997 20.3876C22.1437 20.831 21.6853 21.0956 21.1733 21.0956H2.82661C2.31465 21.0956 1.85621 20.831 1.60027 20.3876C1.34434 19.9443 1.34434 19.415 1.60027 18.9717L10.7737 3.08285C11.0297 2.63951 11.4881 2.37486 12 2.37486C12.5119 2.37486 12.9704 2.63951 13.2263 3.08285L22.3997 18.9717C22.6556 19.415 22.6556 19.9443 22.3997 20.3876Z" fill="#3E4141" fill-opacity="0.7"/>
<path d="M12.7029 7.98438H11.2969V15.0148H12.7029V7.98438Z" fill="#3E4141" fill-opacity="0.7"/>
<path d="M11.9999 16.4209C11.483 16.4209 11.0625 16.8414 11.0625 17.3583C11.0625 17.8752 11.483 18.2957 11.9999 18.2957C12.5167 18.2957 12.9373 17.8752 12.9373 17.3583C12.9373 16.8414 12.5168 16.4209 11.9999 16.4209Z" fill="#3C3C3B" fill-opacity="0.7"/>
</svg>
