<svg width="14" height="8" viewBox="0 0 14 8" fill="none" xmlns="http://www.w3.org/2000/svg">
<path d="M0.995807 0.000138283H12.1758C12.3736 0.000967503 12.5667 0.0604224 12.7306 0.170985C12.8946 0.281548 13.0222 0.438254 13.0971 0.621286C13.172 0.804319 13.191 1.00546 13.1516 1.19927C13.1122 1.39308 13.0162 1.57087 12.8758 1.71014L7.29581 7.29014C7.20284 7.38387 7.09224 7.45826 6.97038 7.50903C6.84853 7.5598 6.71782 7.58594 6.58581 7.58594C6.4538 7.58594 6.32309 7.5598 6.20123 7.50903C6.07937 7.45826 5.96877 7.38387 5.87581 7.29014L0.295808 1.71014C0.155386 1.57087 0.059415 1.39308 0.0200298 1.19927C-0.0193553 1.00546 -0.000386119 0.804319 0.0745395 0.621286C0.149465 0.438254 0.276982 0.281548 0.440965 0.170985C0.604949 0.0604224 0.798035 0.000967503 0.995807 0.000138283Z" fill="#3C3C3B" fill-opacity="0.8"/>
</svg>
