<svg width="14" height="8" viewBox="0 0 14 8" fill="none" xmlns="http://www.w3.org/2000/svg">
<path d="M12.1756 7.5858L0.995579 7.5858C0.797806 7.58497 0.60472 7.52552 0.440737 7.41495C0.276753 7.30439 0.149236 7.14768 0.0743103 6.96465C-0.00061512 6.78162 -0.0195847 6.58048 0.0198002 6.38667C0.059185 6.19285 0.155156 6.01507 0.295578 5.8758L5.87558 0.295798C5.96854 0.20207 6.07914 0.127676 6.201 0.0769072C6.32286 0.0261385 6.45357 0 6.58558 0C6.71759 0 6.8483 0.0261385 6.97016 0.0769072C7.09201 0.127676 7.20262 0.20207 7.29558 0.295798L12.8756 5.8758C13.016 6.01507 13.112 6.19285 13.1514 6.38667C13.1907 6.58048 13.1718 6.78162 13.0968 6.96465C13.0219 7.14768 12.8944 7.30439 12.7304 7.41495C12.5664 7.52552 12.3734 7.58497 12.1756 7.5858Z" fill="#3C3C3B" fill-opacity="0.8"/>
</svg>
