<svg width="20" height="20" viewBox="0 0 20 20" fill="none" xmlns="http://www.w3.org/2000/svg">
<path d="M17.2169 1.37335C16.2089 0.367087 14.5765 0.367087 13.5684 1.37335L12.6552 2.29164L2.93329 12.0084L2.91262 12.0292C2.90762 12.0342 2.90762 12.0395 2.90229 12.0395C2.89196 12.055 2.87647 12.0703 2.8663 12.0858C2.8663 12.091 2.86097 12.091 2.86097 12.0962C2.85064 12.1117 2.84564 12.122 2.83514 12.1375C2.83014 12.1427 2.83014 12.1477 2.82498 12.153C2.81981 12.1685 2.81465 12.1788 2.80932 12.1943C2.80932 12.1993 2.80431 12.1993 2.80431 12.2046L0.647323 18.6909C0.584048 18.8756 0.63215 19.0801 0.771128 19.2172C0.868785 19.3135 1.0005 19.3674 1.13754 19.367C1.19355 19.366 1.24908 19.3573 1.30267 19.3411L7.78397 17.179C7.78898 17.179 7.78898 17.179 7.79431 17.174C7.81061 17.1691 7.82627 17.1622 7.84063 17.1531C7.84467 17.1527 7.84822 17.1509 7.85112 17.1481C7.86646 17.1378 7.88712 17.1273 7.90261 17.117C7.91795 17.1068 7.93361 17.0913 7.9491 17.081C7.95427 17.0757 7.95927 17.0757 7.95927 17.0707C7.9646 17.0655 7.97493 17.0605 7.98009 17.05L18.6153 6.41483C19.6215 5.40679 19.6215 3.7744 18.6153 2.76652L17.2169 1.37335ZM7.61885 15.9663L4.02736 12.3749L13.0164 3.38587L16.6079 6.9772L7.61885 15.9663ZM3.52148 13.3295L6.65907 16.467L1.94768 18.0356L3.52148 13.3295ZM17.8878 5.69234L17.3407 6.24454L13.7491 2.65289L14.3014 2.10085C14.9056 1.49715 15.8849 1.49715 16.4893 2.10085L17.8928 3.50435C18.4924 4.11127 18.4902 5.08832 17.8878 5.69234Z" fill="#3C3C3B" fill-opacity="0.7"/>
</svg>
