<svg width="16" height="16" viewBox="0 0 16 16" fill="none" xmlns="http://www.w3.org/2000/svg">
<path d="M15.4117 12.3101L10.9414 7.83913L15.0897 3.69092C15.8745 2.90714 15.8745 1.63584 15.0897 0.851379C14.3055 0.0672622 13.0342 0.067602 12.2508 0.851379L8.10191 4.99959L3.7502 0.647536C2.96574 -0.136581 1.69444 -0.136581 0.910659 0.647536C0.126882 1.43199 0.126882 2.70262 0.910659 3.48707L5.26271 7.83913L0.588587 12.5129C-0.19587 13.2977 -0.19587 14.5683 0.588587 15.3528C1.3727 16.1366 2.64367 16.1366 3.42744 15.3528L8.10191 10.6787L12.5729 15.1496C13.357 15.9337 14.628 15.9337 15.4117 15.1496C16.1965 14.3648 16.1962 13.0935 15.4117 12.3101Z" fill="#3C3C3B"/>
</svg>
