<svg width="24" height="24" viewBox="0 0 24 24" fill="none" xmlns="http://www.w3.org/2000/svg">
<path d="M3 19.425V8.25H19.5V12.375H21V7.5V4.575C21 3.3 19.95 2.25 18.675 2.25H3.825C2.55 2.25 1.5 3.3 1.5 4.575V7.5V19.425C1.5 20.7 2.55 21.75 3.825 21.75H13.125V20.25H3.825C3.375 20.25 3 19.875 3 19.425ZM10.5 4.5H18V6H10.5V4.5ZM7.5 4.5H9.75V6H7.5V4.5ZM4.5 4.5H6.75V6H4.5V4.5ZM4.5 15.75H13.125V17.25H4.5V15.75ZM4.5 18H13.125V19.5H4.5V18ZM11.25 9C11.6625 9 12 9.3375 12 9.75V14.25C12 14.6625 11.6625 15 11.25 15H5.25C4.8375 15 4.5 14.6625 4.5 14.25V9.75C4.5 9.3375 4.8375 9 5.25 9H11.25ZM21.9 17.025L17.4 21.525C17.25 21.675 17.0625 21.75 16.875 21.75H14.625C14.2125 21.75 13.875 21.4125 13.875 21V18.75C13.875 18.5625 13.95 18.375 14.1 18.225L18.6 13.725C19.5 12.825 21 12.825 21.9 13.725C22.8 14.625 22.8 16.125 21.9 17.025ZM18 10.5H12.75V9H18V10.5ZM18 12.75H12.75V11.25H18V12.75ZM12.75 13.5H16.125V15H12.75V13.5Z" fill="#F5F5F5"/>
</svg>
