<svg width="24" height="24" viewBox="0 0 24 24" fill="none" xmlns="http://www.w3.org/2000/svg">
<path d="M11.8589 9.88281C10.4471 9.88281 9.17652 10.7299 8.61182 12.0005H15.1059C14.5412 10.7299 13.3412 9.88281 11.8589 9.88281Z" fill="#F5F5F5"/>
<path d="M11.859 8.47099C12.6387 8.47099 13.2708 7.83892 13.2708 7.05923C13.2708 6.27953 12.6387 5.64746 11.859 5.64746C11.0793 5.64746 10.4473 6.27953 10.4473 7.05923C10.4473 7.83892 11.0793 8.47099 11.859 8.47099Z" fill="#F5F5F5"/>
<path d="M18.4943 0.706055H5.50608C4.02373 0.706055 2.82373 1.90605 2.82373 3.38841V20.6119C2.82373 22.0943 4.02373 23.2943 5.50608 23.2943H18.4943C19.9767 23.2943 21.1767 22.0943 21.1767 20.6119V3.38841C21.1767 1.90605 19.9767 0.706055 18.4943 0.706055ZM9.81197 8.96488C9.38844 8.47076 9.10608 7.83547 9.10608 7.059C9.10608 5.50605 10.3767 4.23547 11.9296 4.23547C13.4826 4.23547 14.7531 5.50605 14.7531 7.059C14.7531 7.76488 14.4708 8.40017 14.0473 8.96488C15.459 9.67076 16.5178 11.0119 16.8002 12.6355C16.8002 12.8472 16.8002 13.059 16.659 13.2002C16.4473 13.3413 16.2355 13.4119 16.0237 13.4119H7.69432C7.48255 13.4119 7.27079 13.3413 7.12961 13.1296C6.98844 12.9884 6.91785 12.7766 6.98844 12.5649C7.27079 10.9413 8.32961 9.60017 9.81197 8.96488ZM17.6473 19.7649H6.35314C5.92961 19.7649 5.64726 19.4825 5.64726 19.059C5.64726 18.6355 5.92961 18.3531 6.35314 18.3531H17.6473C18.0708 18.3531 18.3531 18.6355 18.3531 19.059C18.3531 19.4825 18.0708 19.7649 17.6473 19.7649ZM17.6473 16.9413H6.35314C5.92961 16.9413 5.64726 16.659 5.64726 16.2355C5.64726 15.8119 5.92961 15.5296 6.35314 15.5296H17.6473C18.0708 15.5296 18.3531 15.8119 18.3531 16.2355C18.3531 16.659 18.0708 16.9413 17.6473 16.9413Z" fill="#F5F5F5"/>
</svg>
