<svg width="24" height="24" viewBox="0 0 24 24" fill="none" xmlns="http://www.w3.org/2000/svg">
<g clip-path="url(#clip0_464_3748)">
<path d="M12 0C5.38317 0 0 5.38317 0 12C0 18.6168 5.38317 24 12 24C18.6168 24 24 18.6168 24 12C24 5.38317 18.6168 0 12 0ZM15.8775 16.6425C14.6275 17.9066 12.9603 18.6028 11.183 18.6028C7.54219 18.6028 4.58016 15.6408 4.58016 12C4.58016 8.35922 7.54219 5.39723 11.183 5.39723C12.9603 5.39723 14.6274 6.09337 15.8774 7.35741C16.0958 7.57828 16.0939 7.93444 15.873 8.15287C15.6521 8.37131 15.2959 8.36934 15.0775 8.14842C14.0405 7.09973 12.6574 6.52223 11.183 6.52223C8.16249 6.52223 5.7052 8.97956 5.7052 12C5.7052 15.0204 8.16253 17.4778 11.183 17.4778C12.6574 17.4778 14.0405 16.9002 15.0775 15.8515C15.2959 15.6307 15.6521 15.6286 15.873 15.8471C16.0939 16.0655 16.0959 16.4217 15.8775 16.6425ZM19.255 12.3977L17.283 14.3698C17.1731 14.4796 17.0292 14.5346 16.8852 14.5346C16.7413 14.5346 16.5973 14.4797 16.4875 14.3698C16.2678 14.1502 16.2678 13.794 16.4875 13.5743L17.4993 12.5625H11.183C10.8723 12.5625 10.6205 12.3106 10.6205 12C10.6205 11.6894 10.8723 11.4375 11.183 11.4375H17.4993L16.4875 10.4257C16.2678 10.206 16.2678 9.84989 16.4875 9.63019C16.7072 9.41048 17.0633 9.41048 17.283 9.63019L19.2551 11.6022C19.3605 11.7077 19.4198 11.8508 19.4198 12C19.4198 12.1491 19.3605 12.2923 19.255 12.3977Z" fill="#F5F5F5"/>
</g>
<defs>
<clipPath id="clip0_464_3748">
<rect width="24" height="24" fill="white"/>
</clipPath>
</defs>
</svg>
