<svg width="481" height="481" viewBox="0 0 481 481" fill="none" xmlns="http://www.w3.org/2000/svg">
<path d="M475.342 299.542C473.201 297.407 470.498 295.921 467.548 295.258C464.597 294.596 461.519 294.783 458.67 295.798C420.388 309.447 379.018 311.954 339.368 303.026C299.717 294.098 263.414 274.103 234.676 245.363C205.938 216.623 185.945 180.319 177.02 140.668C168.094 101.018 170.603 59.6481 184.254 21.3664C185.268 18.5172 185.454 15.4388 184.791 12.4881C184.127 9.53749 182.64 6.83541 180.503 4.69516C178.366 2.5549 175.667 1.06414 172.717 0.395689C169.768 -0.272761 166.689 -0.0915193 163.838 0.918404C129.324 13.1062 98.0034 32.9204 72.206 58.8864C25.96 105.167 -0.0123642 167.921 4.41567e-06 233.347C0.0123731 298.774 26.0084 361.517 72.272 407.78C118.536 454.044 181.279 480.04 246.705 480.052C312.132 480.065 374.885 454.092 421.166 407.846C447.135 382.045 466.949 350.718 479.134 316.198C480.14 313.347 480.318 310.27 479.647 307.322C478.976 304.374 477.483 301.677 475.342 299.542V299.542ZM398.542 385.222C376.725 406.978 350.482 423.784 321.595 434.501C292.708 445.217 261.853 449.591 231.126 447.328C200.399 445.064 170.518 436.215 143.513 421.382C116.508 406.548 93.0115 386.077 74.6181 361.36C56.2246 336.642 43.3653 308.255 36.9132 278.128C30.461 248 30.5672 216.837 37.2244 186.755C43.8817 156.672 56.9341 128.374 75.4956 103.782C94.057 79.1896 117.693 58.8795 144.798 44.2304C136.774 84.1782 138.707 125.487 150.427 164.511C162.146 203.535 183.292 239.073 211.998 267.99C240.912 296.701 276.45 317.85 315.475 329.57C354.5 341.29 395.81 343.22 435.758 335.19C425.866 353.598 413.327 370.454 398.542 385.222V385.222Z" fill="#3C3C3B" fill-opacity="0.7"/>
</svg>
