<svg width="20" height="21" viewBox="0 0 20 21" fill="none" xmlns="http://www.w3.org/2000/svg">
<path d="M19.5906 15.4922L18.2318 13.6476C18.0464 13.3968 17.9466 13.0985 17.9458 12.7927V7.49866C17.9458 5.50989 17.1086 3.60258 15.6185 2.19631C14.1284 0.790035 12.1074 0 10 0C7.89265 0 5.8716 0.790035 4.38148 2.19631C2.89135 3.60258 2.05421 5.50989 2.05421 7.49866V12.7927C2.05344 13.0985 1.95364 13.3968 1.76816 13.6476L0.409434 15.4922C0.203701 15.7073 0.0684143 15.9741 0.0199333 16.2603C-0.0285477 16.5464 0.0118535 16.8397 0.136251 17.1046C0.260649 17.3696 0.463716 17.5948 0.720894 17.7531C0.978073 17.9115 1.27835 17.9961 1.58541 17.9968H6.10656C6.28893 18.8443 6.77618 19.6063 7.48575 20.1537C8.19532 20.701 9.08357 21 10 21C10.9164 21 11.8047 20.701 12.5143 20.1537C13.2238 19.6063 13.7111 18.8443 13.8934 17.9968H18.4146C18.7217 17.9961 19.0219 17.9115 19.2791 17.7531C19.5363 17.5948 19.7393 17.3696 19.8637 17.1046C19.9881 16.8397 20.0285 16.5464 19.9801 16.2603C19.9316 15.9741 19.7963 15.7073 19.5906 15.4922V15.4922ZM10 19.4965C9.5082 19.4952 9.02887 19.3504 8.62771 19.0819C8.22656 18.8134 7.92322 18.4344 7.75929 17.9968H12.2407C12.0768 18.4344 11.7734 18.8134 11.3723 19.0819C10.9711 19.3504 10.4918 19.4952 10 19.4965V19.4965ZM1.58541 16.497C1.62132 16.4656 1.65331 16.4304 1.68076 16.3921L3.07127 14.5024C3.44222 14.0009 3.64183 13.4043 3.64337 12.7927V7.49866C3.64337 5.90764 4.31308 4.38179 5.50518 3.25678C6.69728 2.13176 8.31412 1.49973 10 1.49973C11.6859 1.49973 13.3027 2.13176 14.4948 3.25678C15.6869 4.38179 16.3566 5.90764 16.3566 7.49866V12.7927C16.3582 13.4043 16.5578 14.0009 16.9287 14.5024L18.3192 16.3921C18.3467 16.4304 18.3787 16.4656 18.4146 16.497H1.58541Z" fill="#3C3C3B" fill-opacity="0.7"/>
</svg>
