<svg width="24" height="24" viewBox="0 0 24 24" fill="none" xmlns="http://www.w3.org/2000/svg">
<path fill-rule="evenodd" clip-rule="evenodd" d="M18.9002 14.288H13.6434C14.0772 12.9864 14.3077 11.8908 14.3457 10.9567C14.4354 8.75297 13.3949 7.88076 12.5062 7.53665C12.4691 7.52205 12.4304 7.51167 12.3909 7.50572C11.7024 7.39692 11.4572 7.72087 11.2948 8.08697L11.2735 8.13497C11.2497 8.18755 11.2341 8.24349 11.2274 8.30081C11.0076 10.1807 10.2049 11.9447 8.93172 13.3453V23.8476C9.07374 23.8996 9.21881 23.9429 9.36611 23.9772C9.406 23.9866 9.44678 23.9917 9.48775 23.9923C9.92782 23.997 10.4523 23.9993 11.0573 23.9993C11.6608 23.9993 12.3441 23.9969 13.1024 23.9923H18.0546C18.3442 23.9923 18.6286 23.9154 18.8787 23.7695C19.1288 23.6236 19.3356 23.4138 19.478 23.1617C19.6205 22.9096 19.6934 22.6242 19.6893 22.3347C19.6852 22.0451 19.6043 21.7619 19.4548 21.5139C19.7853 21.2635 20.0082 20.8967 20.0781 20.488C20.1481 20.0793 20.0599 19.6593 19.8314 19.3132C20.1521 19.0412 20.3556 18.656 20.3993 18.2377C20.443 17.8194 20.3237 17.4004 20.0662 17.0679C20.292 16.8383 20.445 16.547 20.5058 16.2307C20.5666 15.9144 20.5326 15.5872 20.408 15.2902C20.2834 14.9932 20.0738 14.7396 19.8055 14.5613C19.5373 14.3831 19.2223 14.2881 18.9002 14.2882V14.288ZM7.83269 4.85967C7.79941 4.75709 7.73736 4.66623 7.65393 4.5979C7.57049 4.52957 7.46919 4.48664 7.36207 4.47422L5.82644 4.29754L5.18425 2.89261C5.13963 2.79434 5.06764 2.71101 4.97691 2.65257C4.88618 2.59412 4.78054 2.56304 4.67261 2.56304C4.56469 2.56304 4.45905 2.59412 4.36832 2.65257C4.27759 2.71101 4.2056 2.79434 4.16097 2.89261L3.51879 4.29754L1.98321 4.47422C1.87608 4.48652 1.77474 4.52935 1.69127 4.59761C1.60779 4.66588 1.5457 4.7567 1.51238 4.85925C1.47907 4.96181 1.47593 5.07178 1.50335 5.17607C1.53077 5.28036 1.58759 5.37457 1.66704 5.44748L2.80525 6.49279L2.49883 8.00765C2.47767 8.11328 2.48724 8.22275 2.52643 8.3231C2.56561 8.42344 2.63275 8.51044 2.71989 8.57377C2.80703 8.6371 2.91051 8.6741 3.01805 8.68039C3.12559 8.68668 3.23267 8.66199 3.3266 8.60925L4.67247 7.84936L6.01863 8.60925C6.11253 8.66224 6.21967 8.68713 6.32731 8.68095C6.43496 8.67478 6.53855 8.63779 6.62577 8.57441C6.71299 8.51103 6.78016 8.42391 6.81927 8.32344C6.85839 8.22297 6.8678 8.11337 6.8464 8.0077L6.53997 6.49284L7.67819 5.44753C7.75756 5.37465 7.81432 5.28051 7.8417 5.17629C7.86908 5.07208 7.86594 4.96219 7.83265 4.85972L7.83269 4.85967ZM22.4874 4.85967C22.5207 4.96214 22.5239 5.07202 22.4965 5.17623C22.4692 5.28045 22.4124 5.3746 22.3331 5.44748L21.1947 6.49279L21.5012 8.00765C21.5226 8.11332 21.5131 8.22291 21.474 8.32337C21.4349 8.42384 21.3678 8.51094 21.2805 8.57432C21.1933 8.63771 21.0897 8.67469 20.9821 8.68087C20.8745 8.68706 20.7673 8.66218 20.6734 8.6092L19.3276 7.84931L17.9816 8.6092C17.8877 8.66219 17.7806 8.68708 17.6729 8.6809C17.5653 8.67473 17.4617 8.63775 17.3745 8.57436C17.2872 8.51098 17.2201 8.42387 17.181 8.32339C17.1418 8.22292 17.1324 8.11333 17.1538 8.00765L17.4603 6.49279L16.322 5.44748C16.2426 5.37457 16.1858 5.28036 16.1583 5.17607C16.1309 5.07178 16.1341 4.96181 16.1674 4.85925C16.2007 4.7567 16.2628 4.66588 16.3463 4.59761C16.4297 4.52935 16.5311 4.48652 16.6382 4.47422L18.1733 4.29754L18.8158 2.89261C18.8604 2.79435 18.9324 2.71102 19.0231 2.65258C19.1138 2.59414 19.2194 2.56307 19.3274 2.56307C19.4353 2.56307 19.5409 2.59414 19.6316 2.65258C19.7223 2.71102 19.7943 2.79435 19.8389 2.89261L20.4814 4.29754L22.0166 4.47422C22.1237 4.48662 22.225 4.52954 22.3085 4.59788C22.3919 4.66621 22.454 4.75708 22.4872 4.85967H22.4874ZM15.7863 2.75118C15.7529 2.64848 15.6909 2.55747 15.6075 2.4889C15.5241 2.42032 15.4228 2.37705 15.3156 2.36418L13.3387 2.13862L12.5115 0.327279C12.4664 0.229565 12.3942 0.146817 12.3036 0.0888191C12.2129 0.0308213 12.1075 0 11.9999 0C11.8923 0 11.7869 0.0308213 11.6962 0.0888191C11.6056 0.146817 11.5334 0.229565 11.4883 0.327279L10.661 2.13848L8.68422 2.36404C8.57717 2.37661 8.47596 2.41961 8.39261 2.48797C8.30926 2.55632 8.24726 2.64714 8.21398 2.74967C8.1807 2.85219 8.17752 2.96211 8.20483 3.06639C8.23214 3.17066 8.28879 3.26492 8.36805 3.33797L9.83365 4.68431L9.43905 6.63431C9.41771 6.73996 9.42718 6.84952 9.46632 6.94994C9.50546 7.05037 9.57263 7.13743 9.65984 7.20078C9.74705 7.26412 9.85062 7.30108 9.95822 7.30725C10.0658 7.31341 10.1729 7.28854 10.2668 7.23558L11.9999 6.258L13.7329 7.23567C13.8268 7.28862 13.9339 7.31348 14.0415 7.30731C14.1491 7.30113 14.2527 7.26417 14.3399 7.20083C14.4271 7.13749 14.4942 7.05043 14.5334 6.95001C14.5725 6.8496 14.582 6.74005 14.5607 6.6344L14.1662 4.6844L15.6318 3.33797C15.7111 3.26526 15.7678 3.17127 15.7953 3.06722C15.8227 2.96316 15.8196 2.85341 15.7864 2.75104L15.7863 2.75118ZM7.80672 14.3898C7.70766 14.2323 7.57029 14.1025 7.40745 14.0125C7.24461 13.9225 7.06161 13.8752 6.87555 13.8751H2.99299C2.70112 13.8754 2.42128 13.9914 2.21487 14.1978C2.00846 14.4041 1.89234 14.6839 1.89199 14.9758V22.8981C1.89224 23.19 2.0083 23.47 2.2147 23.6765C2.42111 23.883 2.70101 23.9992 2.99299 23.9996H6.87555C7.06156 23.9995 7.24452 23.9523 7.40735 23.8624C7.57018 23.7725 7.70758 23.6427 7.80672 23.4854V14.3898ZM3.31469 15.9413C3.31469 15.7922 3.37396 15.6491 3.47944 15.5436C3.58493 15.4381 3.72801 15.3788 3.87719 15.3788H4.29002C4.4392 15.3788 4.58228 15.4381 4.68777 15.5436C4.79326 15.6491 4.85252 15.7922 4.85252 15.9413C4.85252 16.0905 4.79326 16.2336 4.68777 16.3391C4.58228 16.4446 4.4392 16.5038 4.29002 16.5038H3.87724C3.80337 16.5038 3.73022 16.4893 3.66197 16.461C3.59371 16.4328 3.5317 16.3913 3.47946 16.3391C3.42722 16.2869 3.38579 16.2249 3.35751 16.1566C3.32924 16.0884 3.31469 16.0152 3.31469 15.9413Z" fill="#F5F5F5"/>
</svg>
