<svg width="24" height="24" viewBox="0 0 24 24" fill="none" xmlns="http://www.w3.org/2000/svg">
<path d="M22.6943 23.7728L16.5969 17.5764C14.834 19.199 12.5024 20.196 9.93682 20.196C4.44852 20.1952 0 15.6747 0 10.0979C0 4.52104 4.44852 0.000488281 9.93682 0.000488281C15.4251 0.000488281 19.8736 4.52104 19.8736 10.0979C19.8736 12.5074 19.0402 14.7174 17.6546 16.4534L23.776 22.6738C24.0746 22.9769 24.0746 23.469 23.776 23.7721C23.4775 24.0759 22.9929 24.0759 22.6943 23.7728ZM18.3448 10.0979C18.3448 5.37926 14.5804 1.55411 9.93682 1.55411C5.29321 1.55411 1.52884 5.37926 1.52884 10.0979C1.52884 14.8165 5.29321 18.6416 9.93682 18.6416C14.5804 18.6416 18.3448 14.8165 18.3448 10.0979Z" fill="#3C3C3B" fill-opacity="0.9"/>
</svg>
