<svg width="20" height="20" viewBox="0 0 20 20" fill="none" xmlns="http://www.w3.org/2000/svg">
<path d="M0.4175 19.9999C0.383333 19.9999 0.348333 19.9949 0.314167 19.9839C0.13 19.9269 0.00166667 19.7289 0.000833333 19.5009L0 19.0719C0 19.0719 0 19.0719 0 19.0709C0 11.3359 5.22833 5.03985 11.6667 5.00085V0.500852C11.6667 0.300852 11.7658 0.120852 11.9183 0.0418515C12.0733 -0.0391485 12.2483 -0.000148267 12.37 0.137852L19.87 8.63785C19.9525 8.73185 20 8.86285 20 9.00085C20 9.13885 19.9525 9.26985 19.87 9.36385L12.37 17.8639C12.2483 18.0019 12.0742 18.0409 11.9183 17.9599C11.7658 17.8809 11.6667 17.7009 11.6667 17.5009V13.0009H10.3108C6.35083 13.0009 2.69917 15.5839 0.781667 19.7419C0.7075 19.9029 0.566667 19.9999 0.4175 19.9999ZM11.725 6.00085C6.10833 6.00085 1.47083 11.1299 0.893333 17.6889C3.08667 14.1419 6.57083 12.0009 10.3108 12.0009H12.0833C12.3133 12.0009 12.5 12.2249 12.5 12.5009V16.3409L18.9758 9.00085L12.5 1.66085V5.50085C12.5 5.77685 12.3133 6.00085 12.0833 6.00085H11.725Z" fill="#3C3C3B" fill-opacity="0.7"/>
</svg>
