<svg width="22" height="20" viewBox="0 0 22 20" fill="none" xmlns="http://www.w3.org/2000/svg">
<path d="M2 17.425V6.25H18.5V10.375H20V5.5V2.575C20 1.3 18.95 0.25 17.675 0.25H2.825C1.55 0.25 0.5 1.3 0.5 2.575V5.5V17.425C0.5 18.7 1.55 19.75 2.825 19.75H12.125V18.25H2.825C2.375 18.25 2 17.875 2 17.425ZM9.5 2.5H17V4H9.5V2.5ZM6.5 2.5H8.75V4H6.5V2.5ZM3.5 2.5H5.75V4H3.5V2.5ZM3.5 13.75H12.125V15.25H3.5V13.75ZM3.5 16H12.125V17.5H3.5V16ZM10.25 7C10.6625 7 11 7.3375 11 7.75V12.25C11 12.6625 10.6625 13 10.25 13H4.25C3.8375 13 3.5 12.6625 3.5 12.25V7.75C3.5 7.3375 3.8375 7 4.25 7H10.25ZM20.9 15.025L16.4 19.525C16.25 19.675 16.0625 19.75 15.875 19.75H13.625C13.2125 19.75 12.875 19.4125 12.875 19V16.75C12.875 16.5625 12.95 16.375 13.1 16.225L17.6 11.725C18.5 10.825 20 10.825 20.9 11.725C21.8 12.625 21.8 14.125 20.9 15.025ZM17 8.5H11.75V7H17V8.5ZM17 10.75H11.75V9.25H17V10.75ZM11.75 11.5H15.125V13H11.75V11.5Z" fill="#3E4141"/>
</svg>
