<svg width="20" height="24" viewBox="0 0 20 24" fill="none" xmlns="http://www.w3.org/2000/svg">
<path d="M16.4943 0.705933H3.50608C2.02373 0.705933 0.82373 1.90593 0.82373 3.38829V20.6118C0.82373 22.0942 2.02373 23.2942 3.50608 23.2942H16.4943C17.9767 23.2942 19.1767 22.0942 19.1767 20.6118V3.38829C19.1767 1.90593 17.9767 0.705933 16.4943 0.705933ZM7.81197 8.96476C7.38844 8.47064 7.10608 7.83534 7.10608 7.05887C7.10608 5.50593 8.37667 4.23534 9.92961 4.23534C11.4826 4.23534 12.7531 5.50593 12.7531 7.05887C12.7531 7.76476 12.4708 8.40005 12.0473 8.96476C13.459 9.67064 14.5178 11.0118 14.8002 12.6353C14.8002 12.8471 14.8002 13.0589 14.659 13.2001C14.4473 13.3412 14.2355 13.4118 14.0237 13.4118H5.69432C5.48255 13.4118 5.27079 13.3412 5.12961 13.1295C4.98844 12.9883 4.91785 12.7765 4.98844 12.5648C5.27079 10.9412 6.32961 9.60005 7.81197 8.96476ZM15.6473 19.7648H4.35314C3.92961 19.7648 3.64726 19.4824 3.64726 19.0589C3.64726 18.6353 3.92961 18.353 4.35314 18.353H15.6473C16.0708 18.353 16.3531 18.6353 16.3531 19.0589C16.3531 19.4824 16.0708 19.7648 15.6473 19.7648ZM15.6473 16.9412H4.35314C3.92961 16.9412 3.64726 16.6589 3.64726 16.2353C3.64726 15.8118 3.92961 15.5295 4.35314 15.5295H15.6473C16.0708 15.5295 16.3531 15.8118 16.3531 16.2353C16.3531 16.6589 16.0708 16.9412 15.6473 16.9412Z" fill="#3E4141"/>
</svg>
