<svg width="20" height="24" viewBox="0 0 20 24" fill="none" xmlns="http://www.w3.org/2000/svg">
<path d="M16.4943 0.705872H3.50608C2.02373 0.705872 0.82373 1.90587 0.82373 3.38822V20.6118C0.82373 22.0941 2.02373 23.2941 3.50608 23.2941H16.4943C17.9767 23.2941 19.1767 22.0941 19.1767 20.6118V3.38822C19.1767 1.90587 17.9767 0.705872 16.4943 0.705872ZM7.81197 8.96469C7.38844 8.47058 7.10608 7.83528 7.10608 7.05881C7.10608 5.50587 8.37667 4.23528 9.92961 4.23528C11.4826 4.23528 12.7531 5.50587 12.7531 7.05881C12.7531 7.7647 12.4708 8.39999 12.0473 8.96469C13.459 9.67058 14.5178 11.0118 14.8002 12.6353C14.8002 12.847 14.8002 13.0588 14.659 13.2C14.4473 13.3412 14.2355 13.4118 14.0237 13.4118H5.69432C5.48255 13.4118 5.27079 13.3412 5.12961 13.1294C4.98844 12.9882 4.91785 12.7765 4.98844 12.5647C5.27079 10.9412 6.32961 9.59999 7.81197 8.96469ZM15.6473 19.7647H4.35314C3.92961 19.7647 3.64726 19.4823 3.64726 19.0588C3.64726 18.6353 3.92961 18.3529 4.35314 18.3529H15.6473C16.0708 18.3529 16.3531 18.6353 16.3531 19.0588C16.3531 19.4823 16.0708 19.7647 15.6473 19.7647ZM15.6473 16.9412H4.35314C3.92961 16.9412 3.64726 16.6588 3.64726 16.2353C3.64726 15.8118 3.92961 15.5294 4.35314 15.5294H15.6473C16.0708 15.5294 16.3531 15.8118 16.3531 16.2353C16.3531 16.6588 16.0708 16.9412 15.6473 16.9412Z" fill="#31B7BC"/>
</svg>
