<svg width="24" height="20" viewBox="0 0 24 20" fill="none" xmlns="http://www.w3.org/2000/svg">
<path d="M11.9998 3.85547L3.44031 10.9119C3.44031 10.9218 3.43781 10.9365 3.4328 10.9564C3.4279 10.9763 3.42529 10.9907 3.42529 11.0009V18.1462C3.42529 18.4042 3.51961 18.6278 3.70821 18.8161C3.89674 19.0045 4.12001 19.0992 4.37805 19.0992H10.0942V13.3828H13.9055V19.0995H19.6215C19.8795 19.0995 20.1031 19.0049 20.2914 18.8161C20.48 18.628 20.5746 18.4043 20.5746 18.1462V11.0009C20.5746 10.9612 20.5692 10.9313 20.5596 10.9119L11.9998 3.85547Z" fill="#F5F5F5"/>
<path d="M23.8344 9.30412L20.5745 6.5948V0.521142C20.5745 0.382292 20.5299 0.268105 20.4403 0.178737C20.3515 0.0894727 20.2373 0.0448406 20.0981 0.0448406H17.24C17.101 0.0448406 16.9869 0.0894727 16.8974 0.178737C16.8082 0.268105 16.7637 0.382344 16.7637 0.521142V3.42395L13.1315 0.387037C12.8142 0.128995 12.4371 0 12.0003 0C11.5637 0 11.1865 0.128995 10.869 0.387037L0.165418 9.30412C0.0661949 9.38337 0.0118127 9.49005 0.00169755 9.62405C-0.0083655 9.75794 0.0263077 9.87489 0.105821 9.97406L1.02875 11.0757C1.10827 11.1649 1.21234 11.2195 1.34139 11.2395C1.46053 11.2495 1.57967 11.2147 1.69881 11.1353L12 2.54564L22.3014 11.1353C22.3809 11.2045 22.4849 11.2391 22.614 11.2391H22.6587C22.7876 11.2195 22.8914 11.1645 22.9714 11.0755L23.8944 9.97401C23.9738 9.87463 24.0085 9.75789 23.9982 9.62384C23.988 9.4902 23.9334 9.38352 23.8344 9.30412Z" fill="#F5F5F5"/>
</svg>
