<svg width="22" height="24" viewBox="0 0 22 24" fill="none" xmlns="http://www.w3.org/2000/svg">
<path fill-rule="evenodd" clip-rule="evenodd" d="M17.9003 14.2884H12.6435C13.0773 12.9868 13.3078 11.8912 13.3459 10.9571C13.4355 8.75333 12.395 7.88113 11.5063 7.53702C11.4692 7.52242 11.4305 7.51204 11.391 7.50608C10.7025 7.39729 10.4573 7.72124 10.2949 8.08733L10.2736 8.13533C10.2498 8.18792 10.2342 8.24385 10.2275 8.30118C10.0078 10.1811 9.205 11.9451 7.93185 13.3456V23.848C8.07387 23.9 8.21893 23.9433 8.36624 23.9776C8.40612 23.987 8.44691 23.992 8.48788 23.9926C8.92794 23.9973 9.45247 23.9997 10.0574 23.9997C10.6609 23.9997 11.3442 23.9973 12.1025 23.9926H17.0548C17.3443 23.9927 17.6287 23.9158 17.8788 23.7699C18.1289 23.624 18.3357 23.4142 18.4782 23.1621C18.6206 22.91 18.6935 22.6246 18.6894 22.335C18.6853 22.0455 18.6044 21.7622 18.4549 21.5143C18.7854 21.2639 19.0083 20.8971 19.0783 20.4884C19.1482 20.0797 19.06 19.6596 18.8315 19.3136C19.1522 19.0416 19.3557 18.6563 19.3994 18.2381C19.4432 17.8198 19.3238 17.4008 19.0663 17.0683C19.2921 16.8387 19.4451 16.5474 19.5059 16.2311C19.5667 15.9148 19.5327 15.5876 19.4081 15.2905C19.2835 14.9935 19.0739 14.74 18.8057 14.5617C18.5374 14.3834 18.2224 14.2884 17.9003 14.2886V14.2884ZM6.83282 4.86004C6.79953 4.75746 6.73748 4.6666 6.65405 4.59827C6.57062 4.52994 6.46931 4.48701 6.36219 4.47458L4.82656 4.29791L4.18438 2.89297C4.13975 2.79471 4.06776 2.71137 3.97703 2.65293C3.8863 2.59449 3.78066 2.56341 3.67274 2.56341C3.56481 2.56341 3.45917 2.59449 3.36844 2.65293C3.27771 2.71137 3.20572 2.79471 3.1611 2.89297L2.51891 4.29791L0.98333 4.47458C0.8762 4.48688 0.774864 4.52971 0.69139 4.59798C0.607916 4.66624 0.545823 4.75706 0.512506 4.85962C0.47919 4.96218 0.476054 5.07215 0.503473 5.17644C0.530892 5.28073 0.587709 5.37494 0.667158 5.44785L1.80538 6.49316L1.49896 8.00802C1.47779 8.11364 1.48737 8.22312 1.52655 8.32346C1.56573 8.42381 1.63287 8.5108 1.72001 8.57413C1.80715 8.63746 1.91063 8.67447 2.01817 8.68076C2.12571 8.68705 2.23279 8.66235 2.32672 8.60961L3.6726 7.84972L5.01875 8.60961C5.11265 8.6626 5.2198 8.68749 5.32744 8.68132C5.43508 8.67514 5.53867 8.63816 5.62589 8.57478C5.71311 8.51139 5.78028 8.42428 5.81939 8.32381C5.85851 8.22334 5.86792 8.11374 5.84652 8.00807L5.5401 6.49321L6.67831 5.4479C6.75768 5.37502 6.81444 5.28087 6.84182 5.17666C6.86921 5.07245 6.86606 4.96256 6.83277 4.86008L6.83282 4.86004ZM21.4875 4.86004C21.5208 4.9625 21.524 5.07239 21.4966 5.1766C21.4693 5.28081 21.4125 5.37497 21.3332 5.44785L20.1949 6.49316L20.5013 8.00802C20.5227 8.11368 20.5133 8.22327 20.4741 8.32374C20.435 8.4242 20.3679 8.51131 20.2807 8.57469C20.1935 8.63807 20.0899 8.67506 19.9822 8.68124C19.8746 8.68742 19.7675 8.66254 19.6736 8.60957L18.3277 7.84968L16.9817 8.60957C16.8878 8.66256 16.7807 8.68745 16.673 8.68127C16.5654 8.67509 16.4618 8.63811 16.3746 8.57473C16.2874 8.51135 16.2202 8.42423 16.1811 8.32376C16.142 8.22329 16.1325 8.11369 16.154 8.00802L16.4604 6.49316L15.3222 5.44785C15.2427 5.37494 15.1859 5.28073 15.1585 5.17644C15.1311 5.07215 15.1342 4.96218 15.1675 4.85962C15.2008 4.75706 15.2629 4.66624 15.3464 4.59798C15.4299 4.52971 15.5312 4.48688 15.6383 4.47458L17.1734 4.29791L17.8159 2.89297C17.8605 2.79472 17.9325 2.71139 18.0232 2.65295C18.1139 2.59451 18.2196 2.56343 18.3275 2.56343C18.4354 2.56343 18.541 2.59451 18.6317 2.65295C18.7225 2.71139 18.7944 2.79472 18.839 2.89297L19.4815 4.29791L21.0167 4.47458C21.1239 4.48698 21.2252 4.52991 21.3086 4.59824C21.392 4.66658 21.4541 4.75745 21.4873 4.86004H21.4875ZM14.7864 2.75155C14.7531 2.64885 14.691 2.55784 14.6076 2.48926C14.5242 2.42069 14.4229 2.37741 14.3157 2.36455L12.3388 2.13899L11.5116 0.327645C11.4665 0.229931 11.3944 0.147183 11.3037 0.0891853C11.213 0.0311875 11.1077 0.000366211 11 0.000366211C10.8924 0.000366211 10.787 0.0311875 10.6964 0.0891853C10.6057 0.147183 10.5335 0.229931 10.4884 0.327645L9.66116 2.13885L7.68435 2.36441C7.57729 2.37697 7.47608 2.41998 7.39273 2.48833C7.30938 2.55668 7.24739 2.64751 7.2141 2.75003C7.18082 2.85256 7.17764 2.96248 7.20495 3.06675C7.23226 3.17103 7.28891 3.26528 7.36817 3.33833L8.83377 4.68468L8.43917 6.63468C8.41784 6.74033 8.4273 6.84988 8.46644 6.95031C8.50559 7.05073 8.57276 7.1378 8.65996 7.20114C8.74717 7.26449 8.85074 7.30144 8.95834 7.30761C9.06595 7.31378 9.17307 7.2889 9.26694 7.23594L11 6.25836L12.7331 7.23604C12.8269 7.28898 12.934 7.31385 13.0416 7.30767C13.1492 7.3015 13.2528 7.26454 13.34 7.2012C13.4272 7.13786 13.4944 7.0508 13.5335 6.95038C13.5726 6.84996 13.5821 6.74041 13.5608 6.63477L13.1663 4.68477L14.6319 3.33833C14.7112 3.26562 14.768 3.17164 14.7954 3.06758C14.8228 2.96352 14.8198 2.85378 14.7866 2.75141L14.7864 2.75155ZM6.80685 14.3901C6.70778 14.2327 6.57041 14.1028 6.40757 14.0128C6.24473 13.9228 6.06173 13.8756 5.87567 13.8755H1.99311C1.70124 13.8758 1.4214 13.9918 1.21499 14.1982C1.00858 14.4045 0.892459 14.6843 0.892111 14.9762V22.8984C0.892359 23.1904 1.00842 23.4704 1.21483 23.6769C1.42123 23.8834 1.70113 23.9996 1.99311 24H5.87567C6.06169 23.9999 6.24464 23.9527 6.40747 23.8627C6.5703 23.7728 6.7077 23.6431 6.80685 23.4857V14.3901ZM2.31481 15.9417C2.31481 15.7925 2.37408 15.6494 2.47957 15.544C2.58506 15.4385 2.72813 15.3792 2.87731 15.3792H3.29014C3.43933 15.3792 3.5824 15.4385 3.68789 15.544C3.79338 15.6494 3.85264 15.7925 3.85264 15.9417C3.85264 16.0909 3.79338 16.234 3.68789 16.3395C3.5824 16.4449 3.43933 16.5042 3.29014 16.5042H2.87736C2.80349 16.5042 2.73034 16.4897 2.66209 16.4614C2.59384 16.4331 2.53182 16.3917 2.47958 16.3395C2.42735 16.2872 2.38591 16.2252 2.35764 16.157C2.32937 16.0887 2.31481 16.0156 2.31481 15.9417Z" fill="#3E4141"/>
</svg>
