<svg width="24" height="24" viewBox="0 0 24 24" fill="none" xmlns="http://www.w3.org/2000/svg">
<g clip-path="url(#clip0_464_7315)">
<path fill-rule="evenodd" clip-rule="evenodd" d="M11.271 20.0625V17.4375C11.271 17.0235 11.607 16.6875 12.021 16.6875C12.435 16.6875 12.771 17.0235 12.771 17.4375V20.0625C12.771 20.4765 12.435 20.8125 12.021 20.8125C11.607 20.8125 11.271 20.4765 11.271 20.0625Z" fill="#3C3C3B" fill-opacity="0.7"/>
<path fill-rule="evenodd" clip-rule="evenodd" d="M17.1855 18.2168L15.3292 16.3605C15.0367 16.068 15.0367 15.5925 15.3292 15.3C15.6217 15.0075 16.0972 15.0075 16.3897 15.3L18.246 17.1563C18.5385 17.4488 18.5385 17.9243 18.246 18.2168C17.9535 18.5093 17.478 18.5093 17.1855 18.2168Z" fill="#3C3C3B" fill-opacity="0.7"/>
<path fill-rule="evenodd" clip-rule="evenodd" d="M20.0625 12.729H17.4375C17.0235 12.729 16.6875 12.393 16.6875 11.979C16.6875 11.565 17.0235 11.229 17.4375 11.229H20.0625C20.4765 11.229 20.8125 11.565 20.8125 11.979C20.8125 12.393 20.4765 12.729 20.0625 12.729Z" fill="#3C3C3B" fill-opacity="0.7"/>
<path fill-rule="evenodd" clip-rule="evenodd" d="M12.021 23.25C5.81175 23.25 0.770996 18.2093 0.770996 12C0.770996 5.79075 5.81175 0.75 12.021 0.75C18.2302 0.75 23.271 5.79075 23.271 12C23.271 18.2093 18.2302 23.25 12.021 23.25ZM12.021 21.75C17.4022 21.75 21.771 17.3813 21.771 12C21.771 6.61875 17.4022 2.25 12.021 2.25C6.63975 2.25 2.271 6.61875 2.271 12C2.271 17.3813 6.63975 21.75 12.021 21.75Z" fill="#3C3C3B" fill-opacity="0.7"/>
<path fill-rule="evenodd" clip-rule="evenodd" d="M11.9736 16.125C9.69738 16.125 7.84863 14.277 7.84863 12C7.84863 9.723 9.69738 7.875 11.9736 7.875C14.2506 7.875 16.0986 9.723 16.0986 12C16.0986 14.277 14.2506 16.125 11.9736 16.125ZM11.9946 14.625C11.9879 14.625 11.9804 14.625 11.9736 14.625C10.5254 14.625 9.34863 13.449 9.34863 12C9.34863 10.551 10.5254 9.375 11.9736 9.375H11.9946V14.625Z" fill="#3C3C3B" fill-opacity="0.7"/>
<path fill-rule="evenodd" clip-rule="evenodd" d="M18.2167 6.81451L16.3604 8.67076C16.0679 8.96326 15.5924 8.96326 15.2999 8.67076C15.0074 8.37826 15.0074 7.90276 15.2999 7.61026L17.1562 5.75401C17.4487 5.46151 17.9242 5.46151 18.2167 5.75401C18.5092 6.04651 18.5092 6.52201 18.2167 6.81451Z" fill="#3C3C3B" fill-opacity="0.7"/>
<path fill-rule="evenodd" clip-rule="evenodd" d="M12.729 3.9375V6.5625C12.729 6.9765 12.393 7.3125 11.979 7.3125C11.565 7.3125 11.229 6.9765 11.229 6.5625V3.9375C11.229 3.5235 11.565 3.1875 11.979 3.1875C12.393 3.1875 12.729 3.5235 12.729 3.9375Z" fill="#3C3C3B" fill-opacity="0.7"/>
<path fill-rule="evenodd" clip-rule="evenodd" d="M6.81454 5.78331L8.67079 7.63956C8.96329 7.93206 8.96329 8.40756 8.67079 8.70006C8.37829 8.99256 7.90279 8.99256 7.61029 8.70006L5.75404 6.84381C5.46154 6.55131 5.46154 6.07581 5.75404 5.78331C6.04654 5.49081 6.52204 5.49081 6.81454 5.78331Z" fill="#3C3C3B" fill-opacity="0.7"/>
<path fill-rule="evenodd" clip-rule="evenodd" d="M3.9375 11.271H6.5625C6.9765 11.271 7.3125 11.607 7.3125 12.021C7.3125 12.435 6.9765 12.771 6.5625 12.771H3.9375C3.5235 12.771 3.1875 12.435 3.1875 12.021C3.1875 11.607 3.5235 11.271 3.9375 11.271Z" fill="#3C3C3B" fill-opacity="0.7"/>
<path fill-rule="evenodd" clip-rule="evenodd" d="M5.78334 17.1855L7.63959 15.3292C7.93209 15.0367 8.40759 15.0367 8.70009 15.3292C8.99259 15.6217 8.99259 16.0972 8.70009 16.3897L6.84384 18.246C6.55134 18.5385 6.07584 18.5385 5.78334 18.246C5.49084 17.9535 5.49084 17.478 5.78334 17.1855Z" fill="#3C3C3B" fill-opacity="0.7"/>
</g>
<defs>
<clipPath id="clip0_464_7315">
<rect width="24" height="24" fill="white" transform="matrix(1 0 0 -1 0 24)"/>
</clipPath>
</defs>
</svg>
