<svg width="20" height="14" viewBox="0 0 20 14" fill="none" xmlns="http://www.w3.org/2000/svg">
<path d="M10 13.25C3.45734 13.25 0.213594 7.54625 0.07875 7.30359C-0.02625 7.11469 -0.02625 6.88516 0.07875 6.69625C0.213594 6.45375 3.45734 0.75 10 0.75C16.5427 0.75 19.7864 6.45375 19.9212 6.69641C20.0263 6.88531 20.0263 7.11484 19.9212 7.30375C19.7864 7.54625 16.5427 13.25 10 13.25ZM1.36047 6.99906C2.10391 8.12578 5.02281 12 10 12C14.993 12 17.8989 8.12891 18.6395 7.00094C17.8961 5.87422 14.9772 2 10 2C5.00703 2 2.10109 5.87109 1.36047 6.99906ZM10 10.75C7.93219 10.75 6.25 9.06781 6.25 7C6.25 4.93219 7.93219 3.25 10 3.25C12.0678 3.25 13.75 4.93219 13.75 7C13.75 9.06781 12.0678 10.75 10 10.75ZM10 4.5C8.62156 4.5 7.5 5.62156 7.5 7C7.5 8.37844 8.62156 9.5 10 9.5C11.3784 9.5 12.5 8.37844 12.5 7C12.5 5.62156 11.3784 4.5 10 4.5Z" fill="#3C3C3B" fill-opacity="0.7"/>
</svg>
