<svg xmlns="http://www.w3.org/2000/svg" width="24" height="14.307" viewBox="0 0 24 14.307">
  <g id="eye" transform="translate(0 -4.847)">
    <path id="Path_107" data-name="Path 107" d="M12,4.847c-4.585,0-8.744,2.509-11.812,6.584a.95.95,0,0,0,0,1.134C3.256,16.644,7.415,19.153,12,19.153s8.744-2.509,11.812-6.584a.95.95,0,0,0,0-1.134C20.744,7.356,16.585,4.847,12,4.847Zm.329,12.19a5.048,5.048,0,1,1,4.708-4.708A5.051,5.051,0,0,1,12.329,17.037Zm-.152-2.327a2.718,2.718,0,1,1,2.538-2.538A2.714,2.714,0,0,1,12.177,14.71Z" fill="#707070"/>
  </g>
</svg>
