<svg width="211" height="70" viewBox="0 0 211 70" fill="none" xmlns="http://www.w3.org/2000/svg">
<path d="M60.5933 54.8884C59.5092 54.4148 58.5699 53.726 57.7754 52.8181L59.6971 50.8769C60.2841 51.5109 60.9495 51.9923 61.6931 52.321C62.4367 52.6537 63.2038 52.8181 63.9983 52.8181C64.828 52.8181 65.4855 52.6498 65.9669 52.3093C66.4483 51.9727 66.691 51.5031 66.691 50.9082C66.691 50.5129 66.5736 50.1802 66.3427 49.9141C66.1118 49.648 65.7595 49.4171 65.282 49.2136C64.8085 49.01 64.147 48.7909 63.3017 48.5561C62.4485 48.3212 61.6892 48.0355 61.0238 47.7068C60.3585 47.3741 59.7949 46.9045 59.3292 46.294C58.8673 45.6834 58.6325 44.9124 58.6325 43.9771C58.6325 43.1669 58.836 42.4312 59.2391 41.7658C59.6423 41.1005 60.245 40.5722 61.0434 40.1808C61.8418 39.7894 62.8085 39.5977 63.9396 39.5977C65.0198 39.5977 66.0217 39.7816 66.9454 40.1456C67.869 40.5095 68.6909 41.0261 69.4111 41.6954L67.7007 43.7462C67.2428 43.3352 66.6871 42.9947 66.0335 42.7247C65.3799 42.4546 64.7184 42.3216 64.057 42.3216C63.5874 42.3216 63.1647 42.392 62.7929 42.5368C62.4211 42.6816 62.1314 42.8851 61.9201 43.1474C61.7087 43.4135 61.607 43.7227 61.607 44.0749C61.607 44.4193 61.7205 44.7089 61.9475 44.9359C62.1745 45.1629 62.4758 45.3547 62.8516 45.5034C63.2273 45.656 63.7752 45.84 64.4954 46.0591L64.738 46.1374C65.8104 46.4818 66.6988 46.8458 67.4033 47.2254C68.1039 47.605 68.6635 48.0864 69.0823 48.6696C69.4972 49.2527 69.7046 49.9767 69.7046 50.8377C69.7046 51.8005 69.462 52.6419 68.9806 53.3581C68.4992 54.0743 67.8299 54.6262 66.9728 55.0136C66.1157 55.4011 65.1372 55.5929 64.0414 55.5929C62.832 55.6007 61.6774 55.3619 60.5933 54.8884Z" fill="white"/>
<path d="M75.117 55.3586H72.2913V46.3767H70.6357V43.7819H72.2795V41.0228L75.117 40.3496V43.7819H77.6649V46.3767H75.117V55.3586Z" fill="white"/>
<path d="M87.9778 43.7935H90.467V55.3584H88.0052L87.8056 54.0003C87.3634 54.5091 86.8468 54.9083 86.2479 55.1979C85.6531 55.4875 84.9877 55.6323 84.2519 55.6323C83.2069 55.6323 82.2363 55.3623 81.344 54.8222C80.4516 54.2821 79.7432 53.5502 79.2188 52.6266C78.6943 51.703 78.436 50.6893 78.436 49.5857C78.436 48.482 78.6983 47.4684 79.2266 46.5448C79.7511 45.6211 80.4595 44.8893 81.3518 44.3492C82.2402 43.8091 83.2109 43.5391 84.2558 43.5391C85.0073 43.5391 85.6804 43.6878 86.2793 43.9813C86.8781 44.2748 87.79 44.6819 88.2322 45.1945L87.9778 43.7935ZM86.1775 52.5288C86.6863 52.2392 87.0855 51.8361 87.379 51.3273C87.6726 50.8146 87.8213 50.2393 87.8213 49.6013C87.8213 48.9595 87.6726 48.3803 87.379 47.8637C87.0855 47.3471 86.6824 46.94 86.1775 46.6426C85.6687 46.3491 85.109 46.2004 84.4985 46.2004C83.8958 46.2004 83.3439 46.3491 82.843 46.6426C82.342 46.9361 81.9506 47.3432 81.661 47.8637C81.3753 48.3842 81.2305 48.9634 81.2305 49.6013C81.2305 50.2432 81.3753 50.8185 81.661 51.3351C81.9467 51.8517 82.3381 52.2509 82.8351 52.5366C83.3322 52.8223 83.884 52.9671 84.4946 52.9671C85.109 52.9632 85.6687 52.8184 86.1775 52.5288Z" fill="white"/>
<path d="M99.3671 43.7856C99.8211 43.9382 100.263 44.1652 100.69 44.4588L99.4414 46.7522C98.8661 46.3491 98.279 46.1456 97.6763 46.1456C97.2497 46.1534 96.8466 46.2864 96.463 46.5487C96.0795 46.8109 95.7703 47.1788 95.5315 47.6523C95.2928 48.1259 95.1676 48.6777 95.1519 49.3039V55.3623H92.3379V43.7934H94.7527L94.9523 45.3472C95.2771 44.7797 95.6998 44.3413 96.2282 44.0243C96.7526 43.7073 97.3515 43.5508 98.0207 43.5508C98.463 43.5508 98.9131 43.6291 99.3671 43.7856Z" fill="white"/>
<path d="M106.111 55.3586H103.285V46.3767H101.629V43.7819H103.273V41.0228L106.111 40.3496V43.7819H108.659V46.3767H106.111V55.3586Z" fill="white"/>
<path d="M118.451 43.7861H121.265V55.351H118.85L118.662 53.8521C118.236 54.3726 117.668 54.7992 116.964 55.1201C116.259 55.4411 115.543 55.6054 114.823 55.6054C113.895 55.6054 113.089 55.4098 112.4 55.0145C111.711 54.6192 111.179 54.0517 110.807 53.3042C110.432 52.5567 110.244 51.6644 110.244 50.6272V43.7861H113.069V50.1302C113.069 51.0421 113.292 51.7505 113.739 52.2475C114.185 52.7485 114.803 52.9989 115.598 52.9989C116.118 52.9989 116.6 52.8737 117.038 52.6232C117.476 52.3727 117.821 52.0362 118.075 51.6096C118.33 51.183 118.455 50.7133 118.455 50.1967V43.7861H118.451Z" fill="white"/>
<path d="M133.436 44.3531C134.325 44.8932 135.033 45.6251 135.562 46.5487C136.086 47.4723 136.352 48.4859 136.352 49.5896C136.352 50.6933 136.09 51.7069 135.57 52.6305C135.045 53.5542 134.341 54.286 133.444 54.8261C132.552 55.3662 131.581 55.6362 130.536 55.6362C129.844 55.6362 129.214 55.5071 128.642 55.2488C128.071 54.9905 127.57 54.6343 127.135 54.1803V59.2799H124.321V43.7935H126.736L126.936 45.2063C127.378 44.6858 127.898 44.2748 128.501 43.9813C129.104 43.6878 129.781 43.5391 130.532 43.5391C131.577 43.543 132.544 43.813 133.436 44.3531ZM131.949 52.5327C132.446 52.247 132.838 51.8439 133.123 51.3312C133.409 50.8146 133.554 50.2393 133.554 49.5974C133.554 48.9556 133.409 48.3764 133.123 47.8598C132.838 47.3392 132.442 46.9361 131.941 46.6387C131.44 46.3452 130.889 46.1964 130.286 46.1964C129.675 46.1964 129.116 46.3452 128.607 46.6387C128.098 46.9322 127.699 47.3392 127.405 47.8598C127.112 48.3803 126.963 48.9595 126.963 49.5974C126.963 50.2393 127.112 50.8146 127.405 51.3234C127.699 51.8361 128.102 52.2353 128.607 52.5249C129.116 52.8145 129.671 52.9593 130.286 52.9593C130.9 52.9632 131.456 52.8223 131.949 52.5327Z" fill="white"/>
<path d="M145.558 54.8884C144.474 54.4148 143.534 53.726 142.74 52.8181L144.661 50.8769C145.248 51.5109 145.914 51.9923 146.657 52.321C147.401 52.6537 148.168 52.8181 148.963 52.8181C149.792 52.8181 150.45 52.6498 150.931 52.3093C151.413 51.9727 151.655 51.5031 151.655 50.9082C151.655 50.5129 151.538 50.1802 151.307 49.9141C151.076 49.648 150.724 49.4171 150.246 49.2136C149.773 49.01 149.111 48.7909 148.266 48.5561C147.413 48.3212 146.654 48.0355 145.988 47.7068C145.323 47.3741 144.759 46.9045 144.294 46.294C143.832 45.6834 143.597 44.9124 143.597 43.9771C143.597 43.1669 143.8 42.4312 144.204 41.7658C144.607 41.1005 145.209 40.5722 146.008 40.1808C146.806 39.7894 147.773 39.5977 148.904 39.5977C149.984 39.5977 150.986 39.7816 151.91 40.1456C152.833 40.5095 153.655 41.0261 154.375 41.6954L152.665 43.7462C152.207 43.3352 151.651 42.9947 150.998 42.7247C150.344 42.4546 149.683 42.3216 149.021 42.3216C148.552 42.3216 148.129 42.392 147.757 42.5368C147.385 42.6816 147.096 42.8851 146.884 43.1474C146.673 43.4135 146.571 43.7227 146.571 44.0749C146.571 44.4193 146.685 44.7089 146.912 44.9359C147.139 45.1629 147.44 45.3547 147.816 45.5034C148.192 45.656 148.74 45.84 149.46 46.0591L149.702 46.1374C150.775 46.4818 151.663 46.8458 152.368 47.2254C153.068 47.605 153.628 48.0864 154.047 48.6696C154.462 49.2527 154.669 49.9767 154.669 50.8377C154.669 51.8005 154.426 52.6419 153.945 53.3581C153.464 54.0743 152.794 54.6262 151.937 55.0136C151.08 55.4011 150.102 55.5929 149.006 55.5929C147.792 55.6007 146.642 55.3619 145.558 54.8884Z" fill="white"/>
<path d="M160.081 55.3586H157.256V46.3767H155.6V43.7819H157.244V41.0228L160.081 40.3496V43.7819H162.629V46.3767H160.081V55.3586Z" fill="white"/>
<path d="M172.034 43.7861H174.848V55.351H172.434L172.246 53.8521C171.819 54.3726 171.252 54.7992 170.547 55.1201C169.843 55.4411 169.126 55.6054 168.406 55.6054C167.479 55.6054 166.672 55.4098 165.984 55.0145C165.295 54.6192 164.763 54.0517 164.391 53.3042C164.015 52.5567 163.827 51.6644 163.827 50.6272V43.7861H166.653V50.1302C166.653 51.0421 166.876 51.7505 167.322 52.2475C167.768 52.7485 168.387 52.9989 169.181 52.9989C169.702 52.9989 170.183 52.8737 170.621 52.6232C171.06 52.3727 171.404 52.0362 171.659 51.6096C171.913 51.183 172.038 50.7133 172.038 50.1967V43.7861H172.034Z" fill="white"/>
<path d="M186.343 39.085H189.18V55.3619H186.719L186.715 53.8865C186.272 54.3953 185.56 54.9119 184.961 55.2015C184.366 55.4911 183.701 55.6359 182.965 55.6359C181.92 55.6359 180.95 55.3658 180.057 54.8258C179.165 54.2857 178.457 53.5538 177.932 52.6302C177.408 51.7066 177.149 50.6929 177.149 49.5893C177.149 48.4856 177.412 47.472 177.94 46.5483C178.464 45.6247 179.173 44.8929 180.065 44.3528C180.954 43.8127 181.924 43.5426 182.969 43.5426C184.323 43.5426 185.447 44.0162 186.347 44.9672V39.085H186.343ZM184.887 52.5284C185.396 52.2388 185.795 51.8357 186.088 51.3269C186.382 50.8142 186.531 50.2389 186.531 49.601C186.531 48.9592 186.382 48.3799 186.088 47.8633C185.795 47.3467 185.392 46.9397 184.887 46.6423C184.378 46.3487 183.818 46.2 183.208 46.2C182.605 46.2 182.053 46.3487 181.552 46.6423C181.051 46.9358 180.66 47.3428 180.37 47.8633C180.085 48.3839 179.94 48.9631 179.94 49.601C179.94 50.2428 180.085 50.8182 180.37 51.3348C180.656 51.8514 181.048 52.2506 181.545 52.5363C182.042 52.822 182.593 52.9668 183.204 52.9668C183.822 52.9629 184.378 52.818 184.887 52.5284Z" fill="white"/>
<path d="M192.75 41.5821C192.48 41.4256 192.272 41.2182 192.12 40.9599C191.967 40.7016 191.893 40.4315 191.893 40.1419C191.893 39.8562 191.967 39.5822 192.12 39.32C192.272 39.0578 192.48 38.8465 192.75 38.686C193.02 38.5255 193.321 38.4434 193.662 38.4434C193.998 38.4434 194.303 38.5255 194.574 38.686C194.844 38.8465 195.051 39.0578 195.204 39.32C195.356 39.5822 195.431 39.8562 195.431 40.1419C195.431 40.4276 195.356 40.7016 195.204 40.9599C195.051 41.2182 194.844 41.4256 194.574 41.5821C194.303 41.7387 194.002 41.8209 193.662 41.8209C193.321 41.8209 193.016 41.7426 192.75 41.5821ZM195.051 55.3583H192.237V43.7855H195.051V55.3583Z" fill="white"/>
<path d="M200.374 54.8691C199.442 54.3291 198.707 53.5972 198.167 52.6736C197.626 51.7499 197.356 50.7363 197.356 49.6326C197.356 48.5212 197.626 47.4997 198.167 46.5643C198.707 45.629 199.446 44.8932 200.378 44.3531C201.313 43.813 202.343 43.543 203.466 43.543C204.593 43.543 205.622 43.8169 206.554 44.3609C207.489 44.9049 208.225 45.6407 208.765 46.5722C209.305 47.5036 209.575 48.5251 209.575 49.6326C209.575 50.7363 209.305 51.7499 208.765 52.6775C208.225 53.605 207.485 54.3369 206.546 54.8731C205.607 55.4092 204.573 55.6793 203.438 55.6793C202.327 55.6793 201.305 55.4092 200.374 54.8691ZM205.141 52.5836C205.646 52.2861 206.045 51.8752 206.339 51.3547C206.632 50.8341 206.781 50.2549 206.781 49.6209C206.781 48.9791 206.632 48.3998 206.339 47.8793C206.045 47.3588 205.642 46.944 205.137 46.6426C204.628 46.3412 204.072 46.1886 203.47 46.1886C202.859 46.1886 202.303 46.3412 201.799 46.6426C201.294 46.944 200.894 47.3549 200.601 47.8793C200.307 48.3998 200.159 48.983 200.159 49.6209C200.159 50.2627 200.307 50.842 200.601 51.3586C200.894 51.8752 201.294 52.2861 201.799 52.5836C202.303 52.881 202.859 53.0297 203.47 53.0297C204.08 53.0297 204.636 52.881 205.141 52.5836Z" fill="white"/>
<path d="M74.1465 14.085H77.2971V23.8104C77.2971 25.9708 78.4673 27.0979 80.4712 27.0979C82.4985 27.0979 83.6648 25.9708 83.6648 23.8104V14.085H86.8389V23.787C86.8389 27.9276 83.8683 29.951 80.4242 29.951C76.9801 29.951 74.1465 27.9237 74.1465 23.787V14.085Z" fill="white"/>
<path d="M108.65 29.951H105.5V20.2294C105.5 18.0691 104.33 16.9419 102.326 16.9419C100.302 16.9419 99.1321 18.0691 99.1321 20.2294V29.951H95.958V20.2529C95.958 16.1122 98.9286 14.085 102.373 14.085C105.817 14.085 108.654 16.1122 108.654 20.2529V29.951H108.65Z" fill="white"/>
<path d="M60.9221 26.6439V14.085H57.7715V29.7945H66.1V26.6439H60.9221Z" fill="white"/>
<path d="M105.5 28.3773V29.9545H108.651V28.3694C108.651 27.9702 108.494 27.571 108.193 27.2658L107.077 26.1543L105.966 27.2658C105.66 27.571 105.508 27.9702 105.504 28.3694V28.3773H105.5Z" fill="#B94392"/>
<path d="M86.8391 15.6622V15.6583V14.085H83.6885V15.6739C83.6924 16.0731 83.845 16.4723 84.1503 16.7776L85.2657 17.893L86.3772 16.7776C86.6825 16.4723 86.8352 16.0731 86.8391 15.6739V15.6622Z" fill="#33B6BB"/>
<path d="M64.5307 29.7941H66.1079V26.6436H64.5189C64.1197 26.6475 63.7205 26.8001 63.4152 27.1015L62.3037 28.2169L63.4152 29.3283C63.7205 29.6336 64.1197 29.7862 64.5189 29.7902H64.5307V29.7941Z" fill="#F9BA16"/>
<path d="M24.7194 68.5554C12.1679 68.5241 2.07422 58.1802 2.07422 45.6291V24.5265C2.07422 12.8364 10.9585 3.17745 22.3281 1.94856C23.6392 1.80766 24.7859 2.82913 24.7859 4.14413C24.7859 5.27909 23.9249 6.21838 22.8016 6.3397C13.6434 7.33377 6.49288 15.1102 6.49288 24.5265V45.6408C6.49288 55.7107 14.5475 64.0468 24.6137 64.1369C34.7582 64.2269 43.0476 56.016 43.075 45.8991C43.0789 44.7172 43.983 43.7036 45.1572 43.637C46.437 43.5666 47.4937 44.5802 47.4937 45.8404C47.4976 58.3916 37.2748 68.5945 24.7194 68.5554Z" fill="white"/>
<path d="M24.7859 61.1939C33.2475 61.1939 40.1318 54.3097 40.1318 45.8484V34.8392C40.1318 33.6181 39.1417 32.6319 37.9245 32.6319C36.7073 32.6319 35.7171 33.622 35.7171 34.8392V45.8484C35.7171 51.8754 30.8131 56.7753 24.7898 56.7753C18.7626 56.7753 13.8625 51.8715 13.8625 45.8484V24.5306C13.8625 23.3095 12.8723 22.3193 11.6551 22.3193C10.434 22.3193 9.44776 23.3095 9.44776 24.5306V45.8484C9.43993 54.3097 16.3243 61.1939 24.7859 61.1939Z" fill="white"/>
<path d="M30.5587 48.0559C31.7798 48.0559 32.7661 47.0657 32.7661 45.8486V24.5308C32.7661 20.1279 29.185 16.5469 24.782 16.5469C20.379 16.5469 16.7979 20.1279 16.7979 24.5308V35.536C16.7979 36.7571 17.788 37.7473 19.0052 37.7473C20.2263 37.7473 21.2126 36.7571 21.2126 35.536V24.5308C21.2126 22.5661 22.8133 20.9654 24.7781 20.9654C26.7428 20.9654 28.3435 22.5661 28.3435 24.5308V45.8486C28.3513 47.0696 29.3415 48.0559 30.5587 48.0559Z" fill="white"/>
<path d="M22.6607 6.31201H22.6647H24.8485V1.93652H22.6451C22.0893 1.94044 21.5375 2.15178 21.1148 2.57445L19.5688 4.12427L21.1148 5.67017C21.5375 6.09285 22.0932 6.30419 22.6451 6.3081H22.6607V6.31201Z" fill="#F9BA16"/>
<path d="M47.4782 45.7737V45.7698V43.5859H43.1025V45.7893C43.1065 46.3451 43.3178 46.8969 43.7405 47.3196L45.2864 48.8694L46.8324 47.3196C47.2551 46.8969 47.4664 46.3451 47.4703 45.7893V45.7737H47.4782Z" fill="#F9BA16"/>
<path d="M40.1046 34.7844V34.7805V32.5967H35.729V34.8001C35.7329 35.3558 35.9443 35.9076 36.3669 36.3303L37.9129 37.8762L39.4588 36.3303C39.8815 35.9076 40.0929 35.3519 40.0968 34.8001V34.7844H40.1046Z" fill="#33B6BB"/>
<path d="M13.8234 24.4563V24.4524V22.2686H9.45166V24.472C9.45557 25.0277 9.66692 25.5795 10.0896 26.0022L11.6356 27.5481L13.1854 26.0022C13.6081 25.5795 13.8194 25.0238 13.8234 24.472V24.4563Z" fill="#33B6BB"/>
<path d="M28.375 45.8955V45.8994V48.0833H32.7506V45.8799C32.7467 45.3241 32.5354 44.7723 32.1127 44.3496L30.5667 42.8037L29.0169 44.3496C28.5942 44.7723 28.3828 45.328 28.3789 45.8799V45.8955H28.375Z" fill="#B94392"/>
<path d="M16.8174 35.6143V35.6182V37.802H21.193V35.5986C21.1891 35.0429 20.9777 34.491 20.555 34.0684L19.0091 32.5225L17.4632 34.0684C17.0405 34.491 16.8291 35.0429 16.8252 35.5986V35.6143H16.8174Z" fill="#B94392"/>
</svg>
