<svg width="7" height="14" viewBox="0 0 7 14" fill="none" xmlns="http://www.w3.org/2000/svg">
<path d="M1.79936 0.624984C1.65351 0.46494 1.45109 0.367953 1.23497 0.354562C1.01885 0.341172 0.805999 0.41243 0.641505 0.553246C0.477011 0.694061 0.373787 0.893375 0.353695 1.10898C0.333603 1.32458 0.39822 1.53953 0.533861 1.70832L5.06919 6.99998L0.533861 12.2917C0.39822 12.4604 0.333603 12.6754 0.353695 12.891C0.373787 13.1066 0.477011 13.3059 0.641505 13.4467C0.805999 13.5875 1.01885 13.6588 1.23497 13.6454C1.45109 13.632 1.65351 13.535 1.79936 13.375L6.79936 7.54165C6.92874 7.39071 6.99986 7.19846 6.99986 6.99965C6.99986 6.80085 6.92874 6.6086 6.79936 6.45765L1.79936 0.624984Z" fill="#3C3C3B" fill-opacity="0.6"/>
</svg>
