<svg width="14" height="14" viewBox="0 0 14 14" fill="none" xmlns="http://www.w3.org/2000/svg">
<path d="M13.4655 6.45831L8.46554 0.624977C8.31932 0.466372 8.11728 0.370654 7.90193 0.357953C7.68658 0.345252 7.47469 0.416558 7.31084 0.556874C7.14698 0.69719 7.04392 0.895581 7.02334 1.11032C7.00275 1.32506 7.06624 1.53942 7.20046 1.70831L11.7354 6.99998L7.20046 12.2916C7.06624 12.4605 7.00275 12.6749 7.02334 12.8896C7.04392 13.1044 7.14698 13.3028 7.31084 13.4431C7.47469 13.5834 7.68658 13.6547 7.90193 13.642C8.11728 13.6293 8.31932 13.5336 8.46554 13.375L13.4655 7.54164C13.5949 7.39083 13.6661 7.19869 13.6661 6.99998C13.6661 6.80127 13.5949 6.60912 13.4655 6.45831Z" fill="#3C3C3B" fill-opacity="0.6"/>
<path d="M1.79936 0.624984C1.65351 0.46494 1.45109 0.367953 1.23497 0.354562C1.01885 0.341172 0.805999 0.41243 0.641505 0.553246C0.477011 0.694061 0.373787 0.893375 0.353695 1.10898C0.333603 1.32458 0.39822 1.53953 0.533861 1.70832L5.06919 6.99998L0.533861 12.2917C0.39822 12.4604 0.333603 12.6754 0.353695 12.891C0.373787 13.1066 0.477011 13.3059 0.641505 13.4467C0.805999 13.5875 1.01885 13.6588 1.23497 13.6454C1.45109 13.632 1.65351 13.535 1.79936 13.375L6.79936 7.54165C6.92874 7.39071 6.99986 7.19846 6.99986 6.99965C6.99986 6.80085 6.92874 6.6086 6.79936 6.45765L1.79936 0.624984Z" fill="#3C3C3B" fill-opacity="0.6"/>
</svg>
