<svg width="21" height="20" viewBox="0 0 21 20" fill="none" xmlns="http://www.w3.org/2000/svg">
<path d="M10.0575 0C8.06829 0 6.12379 0.58649 4.46984 1.6853C2.8159 2.78412 1.52681 4.3459 0.765584 6.17317C0.00435776 8.00043 -0.194814 10.0111 0.193256 11.9509C0.581326 13.8907 1.53921 15.6725 2.94577 17.0711C4.35233 18.4696 6.1444 19.422 8.09536 19.8079C10.0463 20.1937 12.0685 19.9957 13.9063 19.2388C15.7441 18.4819 17.3148 17.2002 18.42 15.5557C19.5251 13.9112 20.1149 11.9778 20.1149 10C20.1121 7.34872 19.0515 4.80684 17.166 2.9321C15.2805 1.05736 12.724 0.00286757 10.0575 0V0ZM10.0575 1.66667C11.9907 1.66484 13.8646 2.33087 15.3586 3.55083L3.57124 15.2708C2.56637 14.0505 1.93068 12.5715 1.73814 11.0059C1.54559 9.44036 1.80411 7.85263 2.48361 6.42745C3.16311 5.00228 4.23566 3.79824 5.57646 2.95544C6.91726 2.11263 8.4712 1.66571 10.0575 1.66667ZM10.0575 18.3333C8.12415 18.3355 6.25018 17.6694 4.75635 16.4492L16.5437 4.72917C17.5486 5.94955 18.1843 7.42855 18.3768 8.9941C18.5694 10.5596 18.3108 12.1474 17.6313 13.5725C16.9518 14.9977 15.8793 16.2018 14.5385 17.0446C13.1977 17.8874 11.6437 18.3343 10.0575 18.3333Z" fill="#FE5F55"/>
</svg>
