<svg width="18" height="12" viewBox="0 0 18 12" fill="none" xmlns="http://www.w3.org/2000/svg">
<path d="M14.8729 0.000999928H11.5468C11.0878 0.000999928 10.7152 0.449 10.7152 1.001C10.7152 1.553 11.0878 2.001 11.5468 2.001H14.5096L10.4708 6.708C10.1573 7.086 9.6093 7.086 9.29581 6.708C9.26172 6.668 8.26553 5.815 8.26553 5.815C7.31924 4.742 5.70689 4.782 4.80467 5.866L0.991242 10.28C0.66029 10.663 0.650312 11.296 0.968791 11.694C1.1326 11.898 1.34964 12.001 1.56833 12.001C1.77621 12.001 1.9841 11.908 2.14459 11.722L5.96966 7.294C6.28315 6.916 6.83113 6.916 7.14462 7.294C7.17872 7.334 8.1749 8.187 8.1749 8.187C9.12202 9.261 10.7327 9.223 11.6374 8.133L15.7036 3.393V7C15.7036 7.552 16.0762 8 16.5352 8C16.9942 8 17.3667 7.552 17.3667 7V3C17.3667 1.346 16.2475 0 14.8721 0L14.8729 0.000999928Z" fill="#FBBA00"/>
</svg>
